<?xml version="1.0" encoding="UTF-8" standalone="no"?>
<svg
   xmlns:dc="http://purl.org/dc/elements/1.1/"
   xmlns:cc="http://creativecommons.org/ns#"
   xmlns:rdf="http://www.w3.org/1999/02/22-rdf-syntax-ns#"
   xmlns:svg="http://www.w3.org/2000/svg"
   xmlns="http://www.w3.org/2000/svg"
   xmlns:xlink="http://www.w3.org/1999/xlink"
   xmlns:sodipodi="http://sodipodi.sourceforge.net/DTD/sodipodi-0.dtd"
   xmlns:inkscape="http://www.inkscape.org/namespaces/inkscape"
   viewBox="0 0 147.65918 150"
   id="svg3336"
   version="1.1"
   inkscape:version="0.91 r13725"
   sodipodi:docname="logo.svg"
   width="147.65918"
   height="150">
  <metadata
     id="metadata3407">
    <rdf:RDF>
      <cc:Work
         rdf:about="">
        <dc:format>image/svg+xml</dc:format>
        <dc:type
           rdf:resource="http://purl.org/dc/dcmitype/StillImage" />
        <dc:title></dc:title>
      </cc:Work>
    </rdf:RDF>
  </metadata>
  <sodipodi:namedview
     pagecolor="#ffffff"
     bordercolor="#666666"
     borderopacity="1"
     objecttolerance="10"
     gridtolerance="10"
     guidetolerance="10"
     inkscape:pageopacity="0"
     inkscape:pageshadow="2"
     inkscape:window-width="1366"
     inkscape:window-height="706"
     id="namedview3405"
     showgrid="false"
     inkscape:zoom="2.796875"
     inkscape:cx="26.597918"
     inkscape:cy="73.307263"
     inkscape:window-x="-8"
     inkscape:window-y="-8"
     inkscape:window-maximized="1"
     inkscape:current-layer="svg3336"
     inkscape:snap-grids="true"
     fit-margin-top="0"
     fit-margin-left="0"
     fit-margin-right="0"
     fit-margin-bottom="0" />
  <defs
     id="defs3338">
    <filter
       height="1.36309"
       id="filter3907"
       width="1.1572599"
       x="-0.07863"
       y="-0.18155">
      <feGaussianBlur
         stdDeviation=".36244"
         id="feGaussianBlur3341" />
    </filter>
    <filter
       height="1.18681"
       id="filter3911"
       width="1.3254"
       x="-0.1627"
       y="-0.09341">
      <feGaussianBlur
         stdDeviation=".36244"
         id="feGaussianBlur3344" />
    </filter>
    <filter
       height="1.19882"
       id="filter3915"
       width="1.2659"
       x="-0.13294999"
       y="-0.099409997">
      <feGaussianBlur
         stdDeviation=".36244"
         id="feGaussianBlur3347" />
    </filter>
    <filter
       height="1.15815"
       id="filter3919"
       width="1.37168"
       x="-0.18584"
       y="-0.079080001">
      <feGaussianBlur
         stdDeviation=".36244"
         id="feGaussianBlur3350" />
    </filter>
    <filter
       height="1.52941"
       id="filter3642"
       width="1.1051"
       x="-0.052549999"
       y="-0.26471001">
      <feGaussianBlur
         stdDeviation=".81342"
         id="feGaussianBlur3353" />
    </filter>
    <linearGradient
       id="linearGradient3764">
      <stop
         offset="0"
         stop-color="#7ed249"
         id="stop3356" />
      <stop
         offset="1"
         stop-color="#286325"
         id="stop3358" />
    </linearGradient>
    <linearGradient
       gradientTransform="matrix(0.993618,-0.112801,0.112801,0.993618,-5.07586,3.766958)"
       gradientUnits="userSpaceOnUse"
       id="linearGradient3045"
       x1="46.663239"
       x2="37.324551"
       xlink:href="#linearGradient3764"
       y1="33.831051"
       y2="41.263161" />
    <linearGradient
       gradientUnits="userSpaceOnUse"
       id="linearGradient3057"
       x1="10.65647"
       x2="33.094742"
       xlink:href="#linearGradient3764"
       y1="28.931841"
       y2="46.231579" />
    <linearGradient
       gradientUnits="userSpaceOnUse"
       id="linearGradient3059"
       x1="31.53364"
       x2="24.197451"
       xlink:href="#linearGradient3764"
       y1="32.480541"
       y2="30.77289" />
    <linearGradient
       gradientUnits="userSpaceOnUse"
       id="linearGradient3067"
       x1="14.62244"
       x2="33.094742"
       xlink:href="#linearGradient3764"
       y1="22.235821"
       y2="46.231579" />
    <linearGradient
       gradientTransform="matrix(-0.99278,-0.119946,-0.119946,0.99278,56.67892,3.580232)"
       gradientUnits="userSpaceOnUse"
       id="linearGradient3069"
       x1="19.205561"
       x2="33.20182"
       xlink:href="#linearGradient3764"
       y1="39.084511"
       y2="25.560471" />
    <linearGradient
       gradientUnits="userSpaceOnUse"
       id="linearGradient3077"
       x1="13.16315"
       x2="31.72233"
       xlink:href="#linearGradient3764"
       y1="33.926521"
       y2="23.668921" />
    <linearGradient
       gradientUnits="userSpaceOnUse"
       id="linearGradient3079"
       x1="32.67448"
       x2="22.77228"
       xlink:href="#linearGradient3764"
       y1="29.94677"
       y2="30.31579" />
    <linearGradient
       gradientUnits="userSpaceOnUse"
       id="linearGradient3081"
       x1="32.35099"
       x2="21.15724"
       xlink:href="#linearGradient3764"
       y1="42.326569"
       y2="27.794081" />
    <linearGradient
       gradientUnits="userSpaceOnUse"
       id="linearGradient3083"
       x1="18.986179"
       x2="31.45978"
       xlink:href="#linearGradient3764"
       y1="30.509211"
       y2="32.336842" />
  </defs>
  <g
     id="g3409"
     transform="matrix(3.5266283,0.14178517,-0.14178517,3.5266283,-10.4123,-16.732427)"
     inkscape:export-xdpi="90"
     inkscape:export-ydpi="90">
    <path
       id="path3369"
       d="m 12.09375,36.09375 c -2.75852,0 -5,0.72979 -5,1.625 0,0.89521 2.24148,1.625 5,1.625 0.53981,0 1.04429,-0.04234 1.53125,-0.09375 -0.23296,0.27855 -0.375,0.57251 -0.375,0.875 0,1.83853 4.58472,3.34375 10.25,3.34375 5.66528,0 10.25,-1.50522 10.25,-3.34375 0,-0.32112 -0.11354,-0.6437 -0.375,-0.9375 l 10.59375,2.75 c 0,0 0.49309,-1.92533 0.15625,-2.09375 C 43.80036,39.68143 32.24243,38.1448 31.375,38.03125 29.49355,37.2914 26.68672,36.8125 23.5,36.8125 c -2.45652,0 -4.67131,0.28268 -6.4375,0.75 -0.23048,-0.8258 -2.36407,-1.46875 -4.96875,-1.46875 z"
       inkscape:connector-curvature="0"
       style="fill-opacity:0.76863002;fill-rule:evenodd;filter:url(#filter3642)" />
    <path
       id="path3371"
       d="M 23.63287,23.72968 C 28.34985,30.39299 36.99752,38.42777 44.17236,41.90777 44.93261,40.34461 45.30297,38.99119 45,38 37.52983,37.04749 31.02124,28.85385 25.59135,22.88518 c -0.88582,-1.04435 -2.313,-0.53608 -1.95848,0.8445 z"
       style="fill:url(#linearGradient3045)"
       inkscape:connector-curvature="0" />
    <g
       id="g3373"
       transform="translate(-2.15667,0.60766)">
      <path
         id="path3375"
         d="m 27.11579,22.98947 c -2.74077,4.90636 -8.12904,6.55113 -9.57409,11.15039 -1.56933,4.99482 0.48218,9.94627 8.22672,6.78645 6.27098,4.07207 10.70193,-1.40368 9.33492,-7.8776 -0.7422,-3.51497 -7.31988,-6.7347 -7.98755,-10.05924 z"
         style="fill:url(#linearGradient3081)"
         inkscape:connector-curvature="0" />
      <path
         id="path3377"
         d="m 26.86316,25.17895 c 0.92209,5.02665 0.23524,9.73514 -0.8421,14.31579 0.15598,0 6.05273,-5.81053 0.8421,-14.31579 z"
         style="fill:url(#linearGradient3083)"
         inkscape:connector-curvature="0" />
    </g>
    <g
       id="g3379"
       transform="matrix(0.028213,-0.999602,-0.999602,-0.028213,45.729892,51.479769)">
      <path
         id="path3381"
         d="m 27.25498,21.82992 c -3.49867,1.11688 -8.26823,7.71069 -9.71327,12.30995 -1.56933,4.99482 0.48218,9.94627 8.22672,6.78645 5.70394,3.70386 9.93332,-0.87274 9.65342,-6.8465 -0.1949,-4.1597 -3.86802,-8.00066 -8.16687,-12.2499 z"
         style="fill:url(#linearGradient3057)"
         inkscape:connector-curvature="0" />
      <path
         id="path3383"
         d="m 26.86316,25.17895 c 0.92209,5.02665 0.23524,9.73514 -0.8421,14.31579 0.15598,0 6.05273,-5.81053 0.8421,-14.31579 z"
         style="fill:url(#linearGradient3059)"
         inkscape:connector-curvature="0" />
    </g>
    <g
       id="g3385"
       transform="matrix(-0.998193,0.060081,-0.060081,-0.998193,53.444694,45.028432)">
      <path
         id="path3387"
         d="m 27.2555,22.99621 c -3.9937,5.13651 -8.26876,6.5444 -9.7138,11.14366 -1.56933,4.99482 0.48218,9.94627 8.22672,6.78645 5.99843,3.87734 11.07864,-0.71008 9.79182,-6.7969 -0.77412,-3.66165 -4.86423,-5.44205 -8.30473,-11.13321 z"
         style="fill:url(#linearGradient3067)"
         inkscape:connector-curvature="0" />
      <path
         id="path3389"
         d="m 26.9896,25.35528 c -1.51835,4.87976 -1.40123,9.63664 -0.88109,14.31344 -0.15486,-0.01871 -5.31209,-6.49458 0.88109,-14.31344 z"
         style="fill:url(#linearGradient3069)"
         inkscape:connector-curvature="0" />
    </g>
    <g
       id="g3391"
       transform="matrix(-1.1470333e-4,-1,1,-1.1470333e-4,2.404585,50.56634)">
      <path
         id="path3393"
         d="m 26.94755,22.31577 c -2.57261,3.39067 -7.9608,7.22484 -9.40585,11.82409 -1.56933,4.99482 0.48218,9.94627 8.22672,6.78645 6.19759,4.02441 10.02369,-1.8059 8.75666,-8.37852 C 33.814,28.85914 30.07647,25.02537 26.94755,22.31576 Z"
         style="fill:url(#linearGradient3077)"
         inkscape:connector-curvature="0" />
      <path
         id="path3395"
         d="m 26.86316,25.17895 c 0.92209,5.02665 0.23524,9.73514 -0.8421,14.31579 0.15598,0 6.05273,-5.81053 0.8421,-14.31579 z"
         style="fill:url(#linearGradient3079)"
         inkscape:connector-curvature="0" />
    </g>
    <path
       id="path3397"
       d="m 21.5,5 c -5.78555,2.41935 -4.8315,5.9316 -4.6875,9.3125 0,0 -3.25,-8.25 4.6875,-9.3125 z"
       inkscape:connector-curvature="0"
       style="fill:#ffffff;fill-opacity:0.66518004;filter:url(#filter3911)" />
    <path
       id="path3399"
       d="m 11.375,15.5 c -4.12987,1.17686 -6.84006,3.42925 -5.5,8.75 -0.13451,0 -4.44285,-7.8125 5.5,-8.75 z"
       inkscape:connector-curvature="0"
       style="fill:#ffffff;fill-opacity:0.66518004;filter:url(#filter3915)" />
    <path
       id="path3401"
       d="m 16.0625,41.1875 c -1.18566,-4.72164 1.58869,-9.61148 4,-11 0,0 -6.8125,2.5625 -4,11 z"
       inkscape:connector-curvature="0"
       style="fill:#ffffff;fill-opacity:0.66518004;filter:url(#filter3919)" />
    <path
       id="path3403"
       d="m 27.75,20.9375 c 1.71906,-1.29005 5.3947,-3.8487 11.0625,-4.5 -0.55211,-0.82817 -7.28878,-0.05817 -11.0625,4.5 z"
       inkscape:connector-curvature="0"
       style="fill:#ffffff;fill-opacity:0.66518004;filter:url(#filter3907)" />
  </g>
</svg>
