<?xml version="1.0" encoding="UTF-8" standalone="no"?>
<svg
   xmlns:dc="http://purl.org/dc/elements/1.1/"
   xmlns:cc="http://creativecommons.org/ns#"
   xmlns:rdf="http://www.w3.org/1999/02/22-rdf-syntax-ns#"
   xmlns:svg="http://www.w3.org/2000/svg"
   xmlns="http://www.w3.org/2000/svg"
   xmlns:xlink="http://www.w3.org/1999/xlink"
   xmlns:sodipodi="http://sodipodi.sourceforge.net/DTD/sodipodi-0.dtd"
   xmlns:inkscape="http://www.inkscape.org/namespaces/inkscape"
   viewBox="0 0 462.14181 176.86792"
   id="svg3336"
   version="1.1"
   inkscape:version="0.91 r13725"
   sodipodi:docname="logo2.svg"
   width="462.14182"
   height="176.86792">
  <metadata
     id="metadata3407">
    <rdf:RDF>
      <cc:Work
         rdf:about="">
        <dc:format>image/svg+xml</dc:format>
        <dc:type
           rdf:resource="http://purl.org/dc/dcmitype/StillImage" />
        <dc:title></dc:title>
      </cc:Work>
    </rdf:RDF>
  </metadata>
  <sodipodi:namedview
     pagecolor="#ffffff"
     bordercolor="#666666"
     borderopacity="1"
     objecttolerance="10"
     gridtolerance="10"
     guidetolerance="10"
     inkscape:pageopacity="0"
     inkscape:pageshadow="2"
     inkscape:window-width="1366"
     inkscape:window-height="706"
     id="namedview3405"
     showgrid="false"
     inkscape:zoom="1.3984375"
     inkscape:cx="271.3616"
     inkscape:cy="88.354106"
     inkscape:window-x="-8"
     inkscape:window-y="-8"
     inkscape:window-maximized="1"
     inkscape:current-layer="svg3336"
     inkscape:snap-grids="true"
     fit-margin-top="0"
     fit-margin-left="0"
     fit-margin-right="0"
     fit-margin-bottom="0" />
  <defs
     id="defs3338">
    <filter
       height="1.36309"
       id="filter3907"
       width="1.1572599"
       x="-0.07863"
       y="-0.18155">
      <feGaussianBlur
         stdDeviation=".36244"
         id="feGaussianBlur3341" />
    </filter>
    <filter
       height="1.18681"
       id="filter3911"
       width="1.3254"
       x="-0.1627"
       y="-0.09341">
      <feGaussianBlur
         stdDeviation=".36244"
         id="feGaussianBlur3344" />
    </filter>
    <filter
       height="1.19882"
       id="filter3915"
       width="1.2659"
       x="-0.13294999"
       y="-0.099409997">
      <feGaussianBlur
         stdDeviation=".36244"
         id="feGaussianBlur3347" />
    </filter>
    <filter
       height="1.15815"
       id="filter3919"
       width="1.37168"
       x="-0.18584"
       y="-0.079080001">
      <feGaussianBlur
         stdDeviation=".36244"
         id="feGaussianBlur3350" />
    </filter>
    <filter
       height="1.52941"
       id="filter3642"
       width="1.1051"
       x="-0.052549999"
       y="-0.26471001">
      <feGaussianBlur
         stdDeviation=".81342"
         id="feGaussianBlur3353" />
    </filter>
    <linearGradient
       id="linearGradient3764">
      <stop
         offset="0"
         stop-color="#7ed249"
         id="stop3356" />
      <stop
         offset="1"
         stop-color="#286325"
         id="stop3358" />
    </linearGradient>
    <linearGradient
       gradientTransform="matrix(0.993618,-0.112801,0.112801,0.993618,-5.07586,3.766958)"
       gradientUnits="userSpaceOnUse"
       id="linearGradient3045"
       x1="46.663239"
       x2="37.324551"
       xlink:href="#linearGradient3764"
       y1="33.831051"
       y2="41.263161" />
    <linearGradient
       gradientUnits="userSpaceOnUse"
       id="linearGradient3057"
       x1="10.65647"
       x2="33.094742"
       xlink:href="#linearGradient3764"
       y1="28.931841"
       y2="46.231579" />
    <linearGradient
       gradientUnits="userSpaceOnUse"
       id="linearGradient3059"
       x1="31.53364"
       x2="24.197451"
       xlink:href="#linearGradient3764"
       y1="32.480541"
       y2="30.77289" />
    <linearGradient
       gradientUnits="userSpaceOnUse"
       id="linearGradient3067"
       x1="14.62244"
       x2="33.094742"
       xlink:href="#linearGradient3764"
       y1="22.235821"
       y2="46.231579" />
    <linearGradient
       gradientTransform="matrix(-0.99278,-0.119946,-0.119946,0.99278,56.67892,3.580232)"
       gradientUnits="userSpaceOnUse"
       id="linearGradient3069"
       x1="19.205561"
       x2="33.20182"
       xlink:href="#linearGradient3764"
       y1="39.084511"
       y2="25.560471" />
    <linearGradient
       gradientUnits="userSpaceOnUse"
       id="linearGradient3077"
       x1="13.16315"
       x2="31.72233"
       xlink:href="#linearGradient3764"
       y1="33.926521"
       y2="23.668921" />
    <linearGradient
       gradientUnits="userSpaceOnUse"
       id="linearGradient3079"
       x1="32.67448"
       x2="22.77228"
       xlink:href="#linearGradient3764"
       y1="29.94677"
       y2="30.31579" />
    <linearGradient
       gradientUnits="userSpaceOnUse"
       id="linearGradient3081"
       x1="32.35099"
       x2="21.15724"
       xlink:href="#linearGradient3764"
       y1="42.326569"
       y2="27.794081" />
    <linearGradient
       gradientUnits="userSpaceOnUse"
       id="linearGradient3083"
       x1="18.986179"
       x2="31.45978"
       xlink:href="#linearGradient3764"
       y1="30.509211"
       y2="32.336842" />
    <filter
       style="color-interpolation-filters:sRGB"
       inkscape:label="Drop Shadow"
       id="filter4064">
      <feFlood
         flood-opacity="0.498039"
         flood-color="rgb(0,0,0)"
         result="flood"
         id="feFlood4066" />
      <feComposite
         in="flood"
         in2="SourceGraphic"
         operator="in"
         result="composite1"
         id="feComposite4068" />
      <feGaussianBlur
         in="composite1"
         stdDeviation="3.9"
         result="blur"
         id="feGaussianBlur4070" />
      <feOffset
         dx="-8.2"
         dy="8.7"
         result="offset"
         id="feOffset4072" />
      <feComposite
         in="SourceGraphic"
         in2="offset"
         operator="over"
         result="composite2"
         id="feComposite4074" />
    </filter>
  </defs>
  <g
     id="g3409"
     transform="matrix(3.5266283,0.14178517,-0.14178517,3.5266283,-10.4123,10.135496)"
     inkscape:export-xdpi="90"
     inkscape:export-ydpi="90">
    <path
       id="path3369"
       d="m 12.09375,36.09375 c -2.75852,0 -5,0.72979 -5,1.625 0,0.89521 2.24148,1.625 5,1.625 0.53981,0 1.04429,-0.04234 1.53125,-0.09375 -0.23296,0.27855 -0.375,0.57251 -0.375,0.875 0,1.83853 4.58472,3.34375 10.25,3.34375 5.66528,0 10.25,-1.50522 10.25,-3.34375 0,-0.32112 -0.11354,-0.6437 -0.375,-0.9375 l 10.59375,2.75 c 0,0 0.49309,-1.92533 0.15625,-2.09375 C 43.80036,39.68143 32.24243,38.1448 31.375,38.03125 29.49355,37.2914 26.68672,36.8125 23.5,36.8125 c -2.45652,0 -4.67131,0.28268 -6.4375,0.75 -0.23048,-0.8258 -2.36407,-1.46875 -4.96875,-1.46875 z"
       inkscape:connector-curvature="0"
       style="fill-opacity:0.76863002;fill-rule:evenodd;filter:url(#filter3642)" />
    <path
       id="path3371"
       d="M 23.63287,23.72968 C 28.34985,30.39299 36.99752,38.42777 44.17236,41.90777 44.93261,40.34461 45.30297,38.99119 45,38 37.52983,37.04749 31.02124,28.85385 25.59135,22.88518 c -0.88582,-1.04435 -2.313,-0.53608 -1.95848,0.8445 z"
       style="fill:url(#linearGradient3045)"
       inkscape:connector-curvature="0" />
    <g
       id="g3373"
       transform="translate(-2.15667,0.60766)">
      <path
         id="path3375"
         d="m 27.11579,22.98947 c -2.74077,4.90636 -8.12904,6.55113 -9.57409,11.15039 -1.56933,4.99482 0.48218,9.94627 8.22672,6.78645 6.27098,4.07207 10.70193,-1.40368 9.33492,-7.8776 -0.7422,-3.51497 -7.31988,-6.7347 -7.98755,-10.05924 z"
         style="fill:url(#linearGradient3081)"
         inkscape:connector-curvature="0" />
      <path
         id="path3377"
         d="m 26.86316,25.17895 c 0.92209,5.02665 0.23524,9.73514 -0.8421,14.31579 0.15598,0 6.05273,-5.81053 0.8421,-14.31579 z"
         style="fill:url(#linearGradient3083)"
         inkscape:connector-curvature="0" />
    </g>
    <g
       id="g3379"
       transform="matrix(0.028213,-0.999602,-0.999602,-0.028213,45.729892,51.479769)">
      <path
         id="path3381"
         d="m 27.25498,21.82992 c -3.49867,1.11688 -8.26823,7.71069 -9.71327,12.30995 -1.56933,4.99482 0.48218,9.94627 8.22672,6.78645 5.70394,3.70386 9.93332,-0.87274 9.65342,-6.8465 -0.1949,-4.1597 -3.86802,-8.00066 -8.16687,-12.2499 z"
         style="fill:url(#linearGradient3057)"
         inkscape:connector-curvature="0" />
      <path
         id="path3383"
         d="m 26.86316,25.17895 c 0.92209,5.02665 0.23524,9.73514 -0.8421,14.31579 0.15598,0 6.05273,-5.81053 0.8421,-14.31579 z"
         style="fill:url(#linearGradient3059)"
         inkscape:connector-curvature="0" />
    </g>
    <g
       id="g3385"
       transform="matrix(-0.998193,0.060081,-0.060081,-0.998193,53.444694,45.028432)">
      <path
         id="path3387"
         d="m 27.2555,22.99621 c -3.9937,5.13651 -8.26876,6.5444 -9.7138,11.14366 -1.56933,4.99482 0.48218,9.94627 8.22672,6.78645 5.99843,3.87734 11.07864,-0.71008 9.79182,-6.7969 -0.77412,-3.66165 -4.86423,-5.44205 -8.30473,-11.13321 z"
         style="fill:url(#linearGradient3067)"
         inkscape:connector-curvature="0" />
      <path
         id="path3389"
         d="m 26.9896,25.35528 c -1.51835,4.87976 -1.40123,9.63664 -0.88109,14.31344 -0.15486,-0.01871 -5.31209,-6.49458 0.88109,-14.31344 z"
         style="fill:url(#linearGradient3069)"
         inkscape:connector-curvature="0" />
    </g>
    <g
       id="g3391"
       transform="matrix(-1.1470333e-4,-1,1,-1.1470333e-4,2.404585,50.56634)">
      <path
         id="path3393"
         d="m 26.94755,22.31577 c -2.57261,3.39067 -7.9608,7.22484 -9.40585,11.82409 -1.56933,4.99482 0.48218,9.94627 8.22672,6.78645 6.19759,4.02441 10.02369,-1.8059 8.75666,-8.37852 C 33.814,28.85914 30.07647,25.02537 26.94755,22.31576 Z"
         style="fill:url(#linearGradient3077)"
         inkscape:connector-curvature="0" />
      <path
         id="path3395"
         d="m 26.86316,25.17895 c 0.92209,5.02665 0.23524,9.73514 -0.8421,14.31579 0.15598,0 6.05273,-5.81053 0.8421,-14.31579 z"
         style="fill:url(#linearGradient3079)"
         inkscape:connector-curvature="0" />
    </g>
    <path
       id="path3397"
       d="m 21.5,5 c -5.78555,2.41935 -4.8315,5.9316 -4.6875,9.3125 0,0 -3.25,-8.25 4.6875,-9.3125 z"
       inkscape:connector-curvature="0"
       style="fill:#ffffff;fill-opacity:0.66518004;filter:url(#filter3911)" />
    <path
       id="path3399"
       d="m 11.375,15.5 c -4.12987,1.17686 -6.84006,3.42925 -5.5,8.75 -0.13451,0 -4.44285,-7.8125 5.5,-8.75 z"
       inkscape:connector-curvature="0"
       style="fill:#ffffff;fill-opacity:0.66518004;filter:url(#filter3915)" />
    <path
       id="path3401"
       d="m 16.0625,41.1875 c -1.18566,-4.72164 1.58869,-9.61148 4,-11 0,0 -6.8125,2.5625 -4,11 z"
       inkscape:connector-curvature="0"
       style="fill:#ffffff;fill-opacity:0.66518004;filter:url(#filter3919)" />
    <path
       id="path3403"
       d="m 27.75,20.9375 c 1.71906,-1.29005 5.3947,-3.8487 11.0625,-4.5 -0.55211,-0.82817 -7.28878,-0.05817 -11.0625,4.5 z"
       inkscape:connector-curvature="0"
       style="fill:#ffffff;fill-opacity:0.66518004;filter:url(#filter3907)" />
  </g>
  <g
     style="font-style:normal;font-variant:normal;font-weight:normal;font-stretch:normal;font-size:90px;line-height:125%;font-family:Moloko;-inkscape-font-specification:Moloko;text-align:center;letter-spacing:0px;word-spacing:0px;text-anchor:middle;fill:#000000;fill-opacity:1;stroke:none;stroke-width:1px;stroke-linecap:butt;stroke-linejoin:miter;stroke-opacity:1;filter:url(#filter4064)"
     id="text3373"
     transform="translate(-3.9126583e-7,10.179143)">
    <path
       d="m 112.52143,84.584425 c 0.81,-2.43 1.35,-7.02 1.62,-13.77 0.27,-6.75 1.62,-10.53 4.23,-11.43 5.13,-1.8 9.99,-4.14 14.76,-8.91 2.43,-2.43 3.15,-4.05 1.98,-4.86 -1.17,-0.81 -2.79,-0.54 -4.86,0.99 -2.07,1.53 -4.77,2.25 -8.01,2.25 -3.24,0 -4.23,-2.16 -2.97,-6.39 2.61,-8.55 5.94,-16.74 11.34,-23.94 2.7,-3.6 5.49,-5.67 8.37,-6.3 2.88,-0.63 3.33,4.59 1.44,15.75 -1.89,11.16 -2.52,19.53 -1.8,25.11 0.72,5.58 2.16,9.54 4.32,11.97 2.25,2.43 4.23,2.88 6.03,1.35 1.89,-1.53 1.98,-4.41 0.27,-8.64 -1.62,-4.23 -2.7,-8.37 -3.15,-12.33 -0.45,-3.96 0.09,-8.82 1.62,-14.49 2.97,-11.43 2.7,-18.36 2.25,-23.04 -0.18,-2.43 -0.99,-4.41 -2.34,-6.03 -1.35,-1.70999995 -3.24,-2.24999995 -5.85,-1.61999995 -5.13,1.16999995 -12.24,6.65999995 -20.43,19.70999995 -4.05,6.57 -7.56,13.59 -10.53,21.15 -2.97,7.47 -5.22,14.31 -6.93,20.34 l -4.680002,17.64 c -1.53,5.85 -1.53,9.9 -0.18,12.33 1.350002,2.43 3.420002,3.33 6.030002,2.61 2.61,-0.63 4.32,-1.8 5.04,-3.42 0.81,-1.53 1.62,-3.6 2.43,-6.03 z"
       style="fill:#ffff00"
       id="path3422"
       inkscape:connector-curvature="0" />
    <path
       d="m 153.74283,35.354425 c 0.45,1.71 1.71,2.61 3.69,2.61 1.98,-0.09 3.6,-0.63 4.86,-1.62 1.35,-1.08 2.52,-2.07 3.6,-3.06 2.16,-1.89 5.49,-3.96 8.64,-2.52 1.53,0.63 1.8,1.98 0.63,3.87 -1.08,1.89 -2.34,3.51 -3.78,4.86 -2.79,2.52 -7.02,5.22 -10.62,7.02 -1.8,0.81 -3.6,1.89 -5.31,3.06 -1.71,1.17 -2.97,3.06 -3.78,5.85 -1.44,5.4 0.09,8.46 2.97,10.26 1.53,0.9 3.6,1.53 6.3,1.8 2.79,0.36 5.67,-0.27 8.82,-1.98 6.39,-3.33 8.73,-5.49 9.36,-8.46 0.63,-3.15 -0.72,-2.97 -3.6,-0.54 -1.35,1.17 -2.97,2.16 -4.77,2.88 -3.6,1.44 -6.39,1.8 -8.19,1.08 -0.9,-0.45 -1.53,-1.35 -1.8,-2.88 -0.27,-1.53 0.81,-3.24 3.24,-5.22 4.95,-3.96 9.63,-7.47 12.87,-10.26 3.33,-2.79 5.4,-7.2 4.77,-11.97 -0.27,-2.43 -1.53,-4.05 -3.78,-4.86 -2.25,-0.81 -4.5,-1.08 -6.93,-0.72 -4.68,0.72 -7.38,1.44 -10.89,3.15 -1.71,0.81 -3.24,1.8 -4.77,3.06 -1.53,1.26 -1.98,2.79 -1.53,4.59 z"
       style="fill:#ffff00"
       id="path3424"
       inkscape:connector-curvature="0" />
    <path
       d="m 183.61721,35.624425 c 0.27,3.69 -0.18,9.54 -1.17,17.37 -0.99,7.83 -1.89,13.23 -2.88,16.29 -0.99,3.15 -1.98,6.12 -3.15,8.91 -2.43,5.76 -5.22,11.97 -6.75,17.28 -1.71,5.310005 -0.63,6.930005 1.44,6.120005 0.99,-0.45 2.34,-2.250005 4.05,-5.490005 3.51,-6.48 5.76,-11.25 7.47,-15.66 1.71,-4.41 4.14,-11.61 6.57,-20.97 1.26,-4.77 2.79,-8.46 4.5,-11.25 1.8,-2.79 4.23,-5.13 7.2,-7.11 2.97,-1.98 5.58,-3.42 7.83,-4.23 6.48,-2.88 7.92,3.06 5.76,8.28 -1.53,3.51 -4.59,8.01 -9.36,12.42 -2.43,2.25 -5.4,4.14 -8.91,5.76 -3.51,1.53 -4.23,2.61 -2.25,3.15 1.98,0.63 4.5,0.27 7.56,-0.9 6.21,-2.25 11.25,-6.66 15.12,-11.43 5.85,-7.29 7.38,-10.98 7.56,-17.01 0.09,-3.69 -0.27,-6.21 -3.15,-7.74 -4.14,-2.25 -9.99,-0.18 -18.09,5.13 -2.61,1.8 -4.95,3.51 -7.2,5.13 -2.25,1.62 -3.15,1.26 -2.7,-1.08 0.81,-4.68 0.99,-7.11 -1.17,-8.82 -1.08,-0.9 -2.79,-1.08 -5.22,-0.54 -2.34,0.45 -3.33,2.61 -3.06,6.39 z"
       style="fill:#ffff00"
       id="path3426"
       inkscape:connector-curvature="0" />
    <path
       d="m 226.1394,38.324425 c -0.63,1.71 -1.08,4.32 -1.35,7.74 -0.27,3.42 -0.18,6.21 0.45,8.37 1.35,4.23 2.61,7.29 7.92,10.62 2.7,1.71 5.76,2.25 9.18,1.8 3.42,-0.45 6.21,-1.35 8.46,-2.79 4.59,-2.88 6.57,-6.57 8.28,-10.89 0.81,-2.25 1.53,-4.95 1.98,-8.1 0.54,-3.15 0.63,-5.76 0.18,-7.65 -0.72,-3.87 -2.61,-6.66 -4.77,-8.73 -2.16,-2.16 -6.12,-2.88 -10.08,-1.53 -1.89,0.63 -3.15,1.62 -3.6,2.97 -0.45,1.35 -0.09,1.89 0.99,1.44 1.17,-0.45 2.43,-0.9 3.96,-1.26 3.15,-0.72 7.02,1.53 8.19,4.86 1.89,4.5 0.9,12.42 -3.15,18.27 -2.61,3.69 -6.48,5.58 -10.8,5.31 -4.32,-0.36 -6.93,-2.52 -8.28,-6.48 -1.44,-6.3 -0.99,-11.43 2.07,-16.38 2.61,-2.7 4.14,-4.32 4.5,-4.77 l 0.27,-0.36 c 1.08,-1.35 1.08,-2.61 0.09,-3.78 l -0.18,-0.18 c -0.36,-0.45 -0.81,-0.81 -1.44,-1.26 -3.15,-1.26 -5.76,-0.45 -7.83,2.34 l -0.54,0.63 c -1.89,2.52 -3.33,5.76 -4.5,9.81 z"
       style="fill:#ffff00"
       id="path3428"
       inkscape:connector-curvature="0" />
    <path
       d="m 266.09237,24.734425 c -1.08,2.43 -1.62,3.51 -2.34,7.11 -0.63,3.51 -1.44,7.65 -1.71,12.42 -0.09,2.34 0.09,4.86 0.72,7.56 0.63,2.61 1.17,4.77 1.71,6.3 0.63,1.53 1.44,3.15 2.52,4.86 2.16,3.24 3.78,3.69 2.97,0.18 -0.45,-1.71 -0.9,-3.42 -1.44,-4.95 -0.99,-3.15 -0.9,-7.92 -0.27,-9.99 0.36,-0.99 1.71,-1.62 4.05,-1.8 2.43,-0.18 4.05,-0.27 4.86,-0.27 l 3.24,-0.36 c 1.35,-0.18 2.61,-0.54 3.78,-1.17 1.17,-0.63 1.98,-1.26 2.25,-1.71 0.36,-0.45 0.45,0 0.18,1.44 -0.18,1.44 -0.27,3.06 -0.18,4.95 0.63,5.85 1.71,10.44 3.42,13.41 1.44,2.25 3.33,2.34 2.25,-1.53 -0.54,-1.89 -0.9,-4.05 -1.08,-6.3 0,-7.2 -0.45,-9.54 1.62,-16.47 l 1.62,-4.41 1.44,-2.97 c 0.63,-1.35 1.08,-2.34 1.17,-2.97 0.18,-0.63 0.18,-1.53 0.09,-2.7 -0.09,-1.17 -0.81,-1.98 -2.16,-2.43 -1.26,-0.45 -2.52,-0.45 -3.69,0.09 -2.43,0.99 -3.6,3.87 -5.13,11.34 -0.72,3.69 -1.62,5.94 -2.79,6.75 -1.08,0.81 -2.07,1.17 -2.88,1.17 -0.81,-0.09 -2.16,-0.18 -4.05,-0.45 -1.89,-0.27 -3.24,-0.63 -4.23,-0.9 -1.89,-0.63 -2.97,-1.8 -1.89,-6.12 0.63,-2.25 1.35,-4.05 2.34,-5.4 2.79,-3.96 3.42,-5.31 1.89,-7.2 -1.62,-1.62 -6.39,-1.26 -8.28,2.52 z"
       style="fill:#ffff00"
       id="path3430"
       inkscape:connector-curvature="0" />
    <path
       d="m 298.03393,38.324425 c -0.63,1.71 -1.08,4.32 -1.35,7.74 -0.27,3.42 -0.18,6.21 0.45,8.37 1.35,4.23 2.61,7.29 7.92,10.62 2.7,1.71 5.76,2.25 9.18,1.8 3.42,-0.45 6.21,-1.35 8.46,-2.79 4.59,-2.88 6.57,-6.57 8.28,-10.89 0.81,-2.25 1.53,-4.95 1.98,-8.1 0.54,-3.15 0.63,-5.76 0.18,-7.65 -0.72,-3.87 -2.61,-6.66 -4.77,-8.73 -2.16,-2.16 -6.12,-2.88 -10.08,-1.53 -1.89,0.63 -3.15,1.62 -3.6,2.97 -0.45,1.35 -0.09,1.89 0.99,1.44 1.17,-0.45 2.43,-0.9 3.96,-1.26 3.15,-0.72 7.02,1.53 8.19,4.86 1.89,4.5 0.9,12.42 -3.15,18.27 -2.61,3.69 -6.48,5.58 -10.8,5.31 -4.32,-0.36 -6.93,-2.52 -8.28,-6.48 -1.44,-6.3 -0.99,-11.43 2.07,-16.38 2.61,-2.7 4.14,-4.32 4.5,-4.77 l 0.27,-0.36 c 1.08,-1.35 1.08,-2.61 0.09,-3.78 l -0.18,-0.18 c -0.36,-0.45 -0.81,-0.81 -1.44,-1.26 -3.15,-1.26 -5.76,-0.45 -7.83,2.34 l -0.54,0.63 c -1.89,2.52 -3.33,5.76 -4.5,9.81 z"
       style="fill:#ffff00"
       id="path3432"
       inkscape:connector-curvature="0" />
    <path
       d="m 336.5469,35.624425 c 0.27,3.69 -0.18,9.54 -1.17,17.37 -0.99,7.83 -1.89,13.23 -2.88,16.29 -0.99,3.15 -1.98,6.12 -3.15,8.91 -2.43,5.76 -5.22,11.97 -6.75,17.28 -1.71,5.310005 -0.63,6.930005 1.44,6.120005 0.99,-0.45 2.34,-2.250005 4.05,-5.490005 3.51,-6.48 5.76,-11.25 7.47,-15.66 1.71,-4.41 4.14,-11.61 6.57,-20.97 1.26,-4.77 2.79,-8.46 4.5,-11.25 1.8,-2.79 4.23,-5.13 7.2,-7.11 2.97,-1.98 5.58,-3.42 7.83,-4.23 6.48,-2.88 7.92,3.06 5.76,8.28 -1.53,3.51 -4.59,8.01 -9.36,12.42 -2.43,2.25 -5.4,4.14 -8.91,5.76 -3.51,1.53 -4.23,2.61 -2.25,3.15 1.98,0.63 4.5,0.27 7.56,-0.9 6.21,-2.25 11.25,-6.66 15.12,-11.43 5.85,-7.29 7.38,-10.98 7.56,-17.01 0.09,-3.69 -0.27,-6.21 -3.15,-7.74 -4.14,-2.25 -9.99,-0.18 -18.09,5.13 -2.61,1.8 -4.95,3.51 -7.2,5.13 -2.25,1.62 -3.15,1.26 -2.7,-1.08 0.81,-4.68 0.99,-7.11 -1.17,-8.82 -1.08,-0.9 -2.79,-1.08 -5.22,-0.54 -2.34,0.45 -3.33,2.61 -3.06,6.39 z"
       style="fill:#ffff00"
       id="path3434"
       inkscape:connector-curvature="0" />
    <path
       d="m 384.64908,77.204425 c 0.45,-1.35 0.72,-3.78 0.81,-7.11 0.09,-3.33 0.36,-6.39 0.81,-9.18 0.99,-5.67 2.61,-10.71 4.05,-14.31 1.53,-3.69 3.51,-6.75 5.67,-6.39 1.08,0.09 1.17,2.52 0.36,7.11 -2.52,13.77 1.26,22.23 5.94,19.44 1.53,-0.81 2.7,-2.7 3.69,-5.67 0.99,-2.97 2.16,-6.3 3.51,-9.9 1.35,-3.6 2.7,-6.57 4.05,-8.82 2.61,-4.68 4.41,-6.84 5.4,-6.39 1.08,0.36 -0.45,2.43 -1.98,6.39 -1.89,5.85 -4.5,13.14 -0.54,23.49 1.44,3.51 3.15,5.67 5.13,6.66 1.98,0.99 3.24,1.17 3.87,0.63 0.63,-0.45 0.18,-1.44 -1.35,-2.79 -2.97,-2.79 -4.68,-8.91 -3.33,-16.47 0.63,-3.78 1.35,-6.66 1.98,-8.55 1.44,-3.87 3.06,-6.93 5.13,-10.98 2.16,-4.05 1.17,-6.48 -1.26,-7.83 -3.33,-2.07 -7.92,1.71 -12.42,7.56 -5.13,6.48 -9.36,13.05 -11.34,20.34 -0.81,2.43 -1.35,2.52 -1.62,0.27 -0.27,-2.25 0.09,-5.04 0.9,-8.28 0.9,-3.33 1.35,-6.03 1.44,-8.1 0.27,-5.76 -0.09,-10.35 -4.77,-9.63 -2.97,0.72 -7.11,3.87 -11.79,11.43 -2.34,3.69 -4.41,7.74 -6.12,12.15 -3.33,8.64 -4.86,15.3 -6.57,21.87 -0.9,3.33 -0.99,5.67 -0.18,7.02 1.53,2.88 5.04,1.44 7.83,-0.45 1.35,-0.9 2.25,-2.07 2.7,-3.51 z"
       style="fill:#ffff00"
       id="path3436"
       inkscape:connector-curvature="0" />
  </g>
</svg>
